<?xml version="1.0" encoding="utf-8" ?><svg xmlns="http://www.w3.org/2000/svg" xmlns:xlink="http://www.w3.org/1999/xlink" width="1024" height="1024" viewBox="0 0 1024 1024"><path fill="#2A2C2D" d="M474.355 26.2482L557.329 26.2655L696.657 26.2276L747.34 26.2106C760.738 26.2184 774.776 26.0529 788.095 27.2853C840.896 32.2261 890.364 55.278 928.108 92.5315C959.149 123.472 979.624 157.906 990.723 200.647C999.366 233.928 997.584 262.864 997.746 296.712C997.962 327.441 997.97 358.171 997.768 388.9L997.7 686.99L997.593 741.285C997.585 750.134 997.613 758.988 997.54 767.836C997.227 806.017 987.888 842.686 969.525 876.109C959.062 895.299 945.923 912.904 930.504 928.395C891.058 967.968 839.816 993.065 783.953 997.07C761.776 998.66 732.279 997.776 709.478 997.765L584.959 997.794C557.618 997.091 527.075 997.685 499.522 997.741L345.641 997.923L287.046 997.955C255.268 997.964 230.911 998.712 199.69 990.395C158.423 979.403 124.668 959.227 94.2937 929.429C59.8186 895.004 37.079 850.583 29.3109 802.486C27.1652 789.028 26.4661 773.901 26.3494 760.318L26.0403 418.313L26.0938 309.606C26.1302 275.474 24.4715 239.6 31.934 206.332C41.3518 164.773 62.1751 126.665 92.0629 96.292C130.68 56.4166 182.455 31.9084 237.775 27.3174C262.643 25.2635 297.351 26.5301 323.111 26.4427L474.355 26.2482Z"/><path fill="#156D93" d="M502.452 187.795C504.875 188.703 518.816 187.387 522.931 188.002C532.564 189.707 543.697 189.138 553.105 190.786C576.445 194.873 602.937 199.87 624.427 209.988C652.827 223.361 679.003 245.428 710.001 252.61C725.367 255.221 740.91 255.984 756.44 254.671C782.293 252.484 808.099 244.94 834.02 251.133C840.141 252.596 857.771 257.322 862.411 260.356C881.32 272.718 898.638 293.211 904.468 315.353C908.555 331.736 905.474 352.916 900.362 368.791C897.525 377.605 889.915 388.599 885.639 397.073C870.16 419.861 848.604 440.452 827.994 458.492C815.051 469.821 801.74 479.566 790.201 491.507C781.219 500.876 773.244 511.162 766.407 522.194C762.196 528.969 757.973 539.448 754.485 546.956C748.361 560.258 741.816 573.362 734.86 586.249C721.737 610.222 703.045 631.66 692.733 656.903C691.045 661.036 690.098 667.23 688.849 671.541C683.113 691.347 681.484 709.893 681.227 730.435C680.906 744.118 681.065 757.916 683.391 771.431C684.199 776.124 683.346 780.442 685.596 785.089C686.11 786.152 685.897 791.298 686.383 792.455C688.317 797.057 688.403 801.708 689.286 806.535C692.169 815.182 692.481 824.21 694.761 832.902C699.056 848.857 705.188 864.43 706.633 881.011C707.055 885.862 706.359 894.366 704.883 899.036C701.27 910.463 691.403 921.709 681.451 928.328C669.366 936.451 654.511 939.346 640.26 936.355C622.499 932.735 610.278 924.31 600.232 909.195C599.919 908.433 597.252 904.079 596.692 903.052C593.504 897.113 589.457 890.858 586.967 884.599C582.907 874.535 580.881 863.336 576.401 853.477C572.421 844.719 569.567 835.338 565.701 826.616C552.641 796.976 533.13 770.624 508.591 749.483C495.396 737.996 484.504 730.165 467.977 724.08C462.181 721.95 455.768 717.807 449.943 716.111C423.35 708.37 395.841 698.169 367.777 699.829C357.625 700.43 349.87 702.362 340.357 703.737L300.562 709.353C286.435 711.289 271.113 713.619 256.844 713.241C239.641 712.364 221.486 711.224 205.373 705.157C170.466 692.015 151.269 671.088 149.996 633.028C149.117 606.712 156.276 588.68 171.221 566.783C178.322 556.38 184.571 547.918 194.061 539.272C197.549 536.115 200.778 531.14 204.235 527.923C219.251 513.949 232.025 498.998 239.62 479.737C243.971 468.987 244.788 460.055 246.476 448.79L252.072 413.016C253.362 404.68 253.71 398.498 256.457 390.458C258.782 383.652 259.675 375.684 262.643 368.907C267.257 359.758 270.671 349.864 275.211 340.74C282.429 326.236 290.714 311.13 299.193 297.294C301.007 294.332 305.474 289.922 307.786 287.049C327.403 262.672 351.031 240.43 376.975 222.916C391.071 213.678 418.555 203.014 434.572 199.057C449.81 195.271 465.244 192.322 480.805 190.223C486.872 189.395 496.414 188.897 501.533 187.968L502.452 187.795Z"/><path fill="#2A2C2D" d="M467.339 287.641C469.933 286.454 478.393 285.562 478.066 285.828C483.325 281.537 486.946 282.544 493.742 281.799C523.426 278.317 553.512 281.929 581.528 292.337C588.77 295.058 597.718 300.424 604.499 304.389C617.97 312.267 628.368 324.504 638.297 336.275C642.796 341.61 650.586 347.917 651.035 355.064C652.984 356.32 654.752 356.544 655.951 358.014L655.514 358.421C660.001 361.57 672.086 370.543 672.987 376.294L673.397 376.76L672.778 376.964C671.156 375.668 669.659 374.179 667.684 374.242C668.446 385.409 672.57 390.082 676.679 399.836C686.286 422.64 672.687 446.529 650.2 454.385C646.226 455.774 641.701 455.642 638.235 457.891C637.068 458.78 636.068 463.084 634.614 464.545L634.284 464.222C631.766 467.076 629.075 472.526 626.614 475.845C607.086 502.184 580.515 525.22 549.762 537.273C543.868 539.583 537.436 542.218 531.059 542.532C539.937 538.001 549.076 535.513 559.313 529.98C581.7 517.88 619.635 484.708 630.215 462.513L629.901 462.142C630.594 458.892 633.002 456.792 633.272 454.129C632.246 452.201 629.935 452.793 626.931 449.53C612.241 433.458 594.968 413.549 572.935 407.78C541.356 399.511 502.151 408.48 473.666 423.588C470 425.532 466.612 437.135 461.569 435.306C459.186 436.814 451.18 441.872 449.773 443.654C449.48 445.917 443.388 449.663 441.4 451.519C435.191 457.317 428.505 463.115 423.533 470.044C422.394 471.624 423.874 478.088 423.308 480.298C422.346 484.549 421.46 489.036 419.938 493.12C419.077 495.428 419.716 494.773 419.748 496.683C419.856 503.314 420.14 508.696 421.804 515.219C423.845 522.944 426.37 530.533 429.364 537.941C433.519 548.306 436.307 550.616 434.899 562.169C425.976 573.348 415.695 568.763 403.77 568.447C397.76 568.287 393.722 570.725 387.301 568.494L386.541 568.853C387.538 570.523 399.424 574.717 402.128 575.729L401.933 576.189C393.833 574.414 382.054 568.611 375.404 563.659L375.472 563.112C376.446 563.151 381.622 566.847 383.772 567.886C383.682 567.693 382.357 565.124 382.34 565.236C384.865 554.961 371.705 549.949 366.807 543.789C334.415 503.049 333.992 446.409 347.236 398.226C351.824 381.533 362.113 367.466 370.393 352.408C373.911 346.01 368 346.821 373.155 341.019L373.747 341.339C375.041 340.177 376.481 338.428 377.706 337.131C400.946 312.526 434.259 296.12 466.76 287.846C466.953 287.778 467.146 287.71 467.339 287.641Z"/><path fill="#FCFDFC" d="M630.215 462.513C637.47 451.74 642.837 433.879 639.892 420.853C633.603 393.033 595.684 383.586 571.336 382.168C569.369 382.053 566.988 382.335 565.214 381.634L565.305 380.953C570.922 377.675 594.664 382.99 602.027 384.85C615.361 388.219 632.757 396.59 639.815 409.096C647.056 421.926 643.585 442.308 638.262 455.38C637.238 457.895 634.817 461.822 634.284 464.222C631.766 467.076 629.075 472.526 626.614 475.845C607.086 502.184 580.515 525.22 549.762 537.273C543.868 539.583 537.436 542.218 531.059 542.532C539.937 538.001 549.076 535.513 559.313 529.98C581.7 517.88 619.635 484.708 630.215 462.513Z"/><path fill="#FCFDFC" d="M467.339 287.641C474.17 286.779 478.57 286.294 485.423 286.594C474.099 289.197 462.82 291.415 451.779 295.486C430.063 303.494 408.1 315.543 390.022 330.017C383.092 335.565 377.224 341.292 370.742 347.173C371.754 345.271 372.857 343.29 373.747 341.339C375.041 340.177 376.481 338.428 377.706 337.131C400.946 312.526 434.259 296.12 466.76 287.846C466.953 287.778 467.146 287.71 467.339 287.641Z"/><path fill="#FCFDFC" d="M449.773 443.654C433.272 453.983 414.203 476.203 408.285 495.166C407.757 496.857 407.43 500.18 406.366 501.402L405.729 501.1C405.138 496.924 409.158 486.192 411.019 482.205C420.914 461.015 447.916 436.759 469.874 429.038C467.627 431.148 464.156 433.465 461.569 435.306C459.186 436.814 451.18 441.872 449.773 443.654Z"/><path fill="#FCFDFC" d="M672.987 376.294C665.822 368.881 660.669 363.561 651.541 358.513C647.936 356.519 643.995 354.766 640.616 352.597L640.634 352.195C646.273 353.35 650.47 355.799 655.514 358.421C660.001 361.57 672.086 370.543 672.987 376.294Z"/><path fill="#FCFDFC" d="M450.224 354.419L451.725 354.843L451.874 355.657C449.988 357.621 445.278 359.622 442.681 360.915C408.169 378.088 379.378 399.046 357.082 430.76L356.272 431.234C355.999 430.337 355.932 430.613 356.466 429.629C375.276 394.996 414.782 368.488 450.224 354.419Z"/><path fill="#FCFDFC" d="M507.043 227.235C518.672 227.307 529.344 227.69 540.895 228.94C599.853 235.321 660.034 270.227 696.801 316.414C703.949 325.329 710.339 334.827 715.905 344.807C728.979 368.696 742.577 408.216 739.487 435.313C734.629 440.175 729.435 444.689 723.943 448.822C724.022 438.317 723.835 430.24 722.438 419.705C715.067 366.993 687.093 319.356 644.651 287.24C599.427 252.758 538.514 235.146 481.952 242.795C427.243 250.064 377.771 279.069 344.709 323.258C312.416 365.819 299.379 409.655 300.52 462.88C301.572 507.912 316.583 551.505 343.479 587.638C352.819 600.048 364.184 611.785 375.405 622.515C369.735 624.362 361.02 626.106 354.977 627.46C354.273 626.916 353.504 626.301 352.886 625.661C308.799 579.976 283.917 526.627 282.456 462.355C281.235 400.835 304.566 341.362 347.292 297.082C389.154 253.509 446.63 228.379 507.043 227.235Z"/><path fill="#FCFDFC" d="M803.971 293.227C814.453 292.713 825.7 293.029 836.058 294.66C847.355 296.438 861.025 300.641 867.903 310.514C872.81 317.558 873.459 325.984 871.994 334.21C862.02 390.242 752.593 468.896 707.142 500.824C640.346 547.52 568.313 586.235 492.514 616.18C452.502 631.315 411.653 644.135 370.169 654.576C320.941 667.471 266.916 678.123 216.114 670.636C193.417 667.291 173.497 653.827 179.577 628.791C182.416 617.1 186.881 606.582 194.032 596.805C208.362 577.214 226.573 560.659 243.927 543.812C251.24 536.757 266.187 522.089 274.453 516.56C275.531 519.903 276.357 524.01 277.145 527.488C263.174 539.162 250.362 551.178 237.172 563.688C225.051 575.07 211.499 588.46 201.629 601.882C194.804 611.162 185.723 628.633 187.907 640.669C188.809 645.636 193.804 651.751 198.203 653.98C239.958 675.14 316.993 658.579 359.2 648.934C507.012 615.157 647.242 540.327 765.351 446.447C793.866 423.781 831.459 389.959 851.771 359.323C857.269 351.03 865.535 332.053 862.804 321.925C861.442 316.872 857.366 312.113 852.72 309.939C816.982 293.212 746.421 307.313 710.789 317.925C708.337 314.084 707.41 312.979 704.129 310.111C711.864 306.741 721.148 305.099 729.418 303.265C753.718 297.878 779.064 294.062 803.971 293.227Z"/><path fill="#FCFDFC" d="M539.172 441.194C541.928 440.738 545.315 440.919 548.176 440.767C576.711 439.255 607.051 455.706 585.299 487.162C568.112 512.015 534.182 528.871 504.458 534.383C492.072 536.984 469.382 538.027 458.702 529.845C443.251 518.007 453.997 495.492 463.707 483.796C481.501 462.366 511.306 444.176 539.172 441.194Z"/><path fill="#0988BF" d="M541.113 452.793C548.86 451.714 559.632 452.665 566.411 456.843C576.991 463.364 578.488 475.928 571.032 485.553C553.993 507.55 527.233 518.213 500.605 522.939C499.733 523.157 498.849 523.329 497.959 523.453C488.172 524.81 468.29 519.319 467.767 507.456C467.386 498.814 472.537 490.333 477.585 483.809C494.665 461.739 514.285 455.764 541.113 452.793Z"/><path fill="#FCFDFC" d="M739.243 322.29C813.421 315.525 840.981 354.191 786.861 411.927C762.36 438.065 741.462 455.232 712.467 476.385C682.38 498.421 650.986 518.614 618.458 536.854C538.207 582.468 455.457 620.195 364.374 638.075C335.713 643.701 317.452 648.071 288.344 644.962C219.265 637.583 225.776 594.955 263.783 551.83C268.756 546.179 273.027 539.834 279.721 534.564C280.62 537.712 281.716 540.807 282.771 543.907C277.274 552.159 267.9 561.43 261.731 569.413C250.42 584.05 234.332 611.287 256.214 625.283C282.172 641.885 327.703 637.832 357.059 632.844C394.017 626.566 430.555 617.348 466.071 605.724C558.106 573.429 649.484 520.369 724.611 458.493C748.376 437.281 775.062 415.187 793.923 389.351C837.652 329.454 759.398 326.456 720.66 333.77C719.196 330.234 718.048 328.237 716.127 324.9C724.227 323.613 731.089 322.77 739.243 322.29Z"/><path fill="#FCFDFC" d="M713.825 506.481C720.395 502.455 727.477 497.671 733.849 493.847C724.673 536.305 704.516 568.265 676.949 601.644C668.529 611.84 659.49 620.5 651.007 630.116C655.361 628.32 657.609 627.048 661.522 624.334C635.095 690.951 641.306 772.578 659.138 840.586C665.202 863.712 672.379 883.262 679.48 905.617L668.524 905.553C661.875 883.86 654.898 862.251 649.413 839.916C633.832 776.47 628.116 708.502 643.977 644.495C644.705 641.557 646.234 637.073 647.636 634.404C648.205 633.335 648.806 632.282 649.437 631.248C639.726 639.201 629.502 646.507 618.832 653.117C614.618 655.723 609.327 658.268 605.426 660.791C601.684 662.287 595.247 665.308 592.619 660.324C587.78 651.144 598.712 648.256 604.984 645.157C611.479 642.235 617.292 638.33 623.207 634.341C659.727 609.712 690.845 569.561 706.926 528.651C709.633 521.763 711.888 513.615 713.825 506.481Z"/><path fill="#FCFDFC" d="M402.263 655.305C408.136 652.572 416.353 650.655 422.916 648.185C452.183 664.252 479.489 671.028 512.977 670.621C518.617 670.552 530.383 670.088 535.59 668.812L536.499 668.777C540.776 668.575 547.575 665.787 550.786 669.328C555.39 674.402 549.437 680.912 544.276 682.236L542.356 682.735C526.866 684.937 518.644 686.263 502.707 686.078C524.15 696.345 554.72 726.533 569.281 745.747C591.541 775.122 608.087 813.263 620.796 847.709C627.591 866.635 632.761 886.498 639.303 905.603L627.937 905.484C608.044 833.468 583.546 759.288 522.445 711.29C510.229 701.694 499.197 695.484 486.913 686.906C486.112 687.131 486.585 687.064 485.482 686.954L485.639 685.373C483.042 685.144 479.224 685.134 477.439 683.388C475.955 682.786 462.667 680.634 459.552 679.796C438.192 674.044 420.697 667.772 402.263 655.305Z"/><path fill="#0988BF" d="M477.439 683.388C483.897 684.135 491.928 684.898 498.198 686.184L486.913 686.906C486.112 687.131 486.585 687.064 485.482 686.954L485.639 685.373C483.042 685.144 479.224 685.134 477.439 683.388Z"/><path fill="#244550" d="M535.59 668.812L535.855 668.085C536.983 667.867 546.381 666.576 546.461 666.33C549.354 657.447 547.011 646.513 552.866 638.714C559.347 630.242 569.014 626.191 579.24 624.256C590.943 622.041 590.527 628.525 591.857 638.085C592.389 641.911 592.944 646.236 593.306 650.109C596.249 649.443 600.895 644.616 604.984 645.157C598.712 648.256 587.78 651.144 592.619 660.324C595.247 665.308 601.684 662.287 605.426 660.791C604.83 662.066 604.093 662.594 602.763 663.159C599.435 664.574 592.471 661.99 592.266 662.106C592.159 662.167 591.569 663.33 591.522 663.434C589.361 668.171 594.622 694.386 585.97 696.768C584.717 697.113 583.214 696.576 581.97 696.362C574.041 694.997 561.254 678.555 552.259 678.067C549.18 681.292 547.33 683.842 542.356 682.735L544.276 682.236C549.437 680.912 555.39 674.402 550.786 669.328C547.575 665.787 540.776 668.575 536.499 668.777L535.59 668.812Z"/><path fill="#FCFDFC" d="M365.066 556.912C368.535 559.252 371.842 561.466 375.404 563.659C382.054 568.611 393.833 574.414 401.933 576.189C410.277 580.012 428.776 581.24 438.199 582.975C418.448 586.417 375.456 575.536 365.066 556.912Z"/></svg>