<?xml version="1.0" encoding="utf-8" ?><svg xmlns="http://www.w3.org/2000/svg" xmlns:xlink="http://www.w3.org/1999/xlink" width="512" height="512" viewBox="0 0 512 512"><defs><linearGradient id="gradient_0" gradientUnits="userSpaceOnUse" x1="166.08144" y1="454.90411" x2="206.54282" y2="119.09914"><stop offset="0" stop-color="#223BBB"/><stop offset="1" stop-color="#079FE6"/></linearGradient></defs><path fill="url(#gradient_0)" d="M112.885 135.181C114.24 133.351 115.888 130.424 117.114 128.379C120.042 123.467 122.922 118.526 125.753 113.558C131.619 103.438 137.948 93.4074 143.858 83.271C147.825 76.467 153.037 67.4397 158.356 61.9259C163.675 56.4125 172.279 52.0851 179.751 50.6342C185.785 49.4625 192.757 49.7305 199.007 49.721L222.411 49.7051L302.037 49.5138C301.038 52.0467 298.984 55.3832 297.554 57.8256C294.689 62.6788 291.779 67.5053 288.824 72.3044C281.573 84.2269 274.473 96.2403 267.525 108.342C264.622 113.32 261.205 118.306 258.558 123.392C251.089 136.078 242.983 149.157 235.766 161.962C231.479 169.099 227.35 176.342 222.936 183.403C222.183 184.608 221.456 185.861 220.608 187C219.02 190.207 216.545 194.096 214.594 197.219C208.826 206.455 203.428 216.324 197.524 225.43C196.825 226.699 196.334 227.577 195.511 228.777C192.864 233.057 190.254 237.36 187.682 241.685C185.163 245.985 182.953 250.098 179.947 254.11C188.714 267.032 196.573 281.493 205.144 294.624C206.506 296.712 209.155 300.717 210.205 302.854C214.144 308.627 217.827 314.994 221.58 320.952C229.142 332.848 236.627 344.792 244.033 356.785L272.569 402.368C275.861 407.55 279.12 412.752 282.346 417.975C283.567 419.945 285.66 423.054 286.663 424.969C290.507 430.736 294.141 436.922 298.008 442.775C301.355 447.746 304.626 452.768 307.818 457.84C309.769 460.89 311.959 464.148 313.627 467.359C306.154 467.676 297.722 467.492 290.132 467.506L243.813 467.564L217.102 467.707C215.695 467.708 208.465 467.802 207.451 467.559C206.658 467.648 205.842 467.768 205.05 467.769C203.968 467.595 200.946 467.512 199.751 467.439C195.532 467.184 192.597 466.801 188.614 465.523C172.113 460.233 166.157 449.105 157.861 435.27C155.045 430.572 151.093 425.003 148.645 420.239C147.868 419.442 145.407 415.287 144.68 414.101C142.029 409.763 139.349 405.442 136.64 401.14C129.762 390.443 123.336 379.77 116.653 368.973L93.8437 332.501C89.8052 326.037 85.722 318.806 81.5782 312.54C76.8267 304.195 70.5296 295.326 65.4641 286.938C59.89 277.707 53.2726 268.875 51.0695 257.943C50.4548 254.892 50.5553 252.391 50.4882 249.437C50.2572 239.263 54.6155 232.291 59.8019 223.961C62.2196 220.078 64.6349 215.804 67.2508 211.949C67.8194 210.889 68.2931 210.403 69.0595 209.506C70.2563 206.418 74.7747 199.41 76.6785 196.121C83.5655 184.224 90.6916 172.406 97.6532 160.549C100.081 156.414 102.555 152.951 104.898 148.61C106.171 147.004 112.132 136.947 112.885 135.181Z"/><defs><linearGradient id="gradient_1" gradientUnits="userSpaceOnUse" x1="193.10425" y1="191.95897" x2="220.93277" y2="45.768734"><stop offset="0" stop-color="#29A4E7"/><stop offset="1" stop-color="#19DBFE"/></linearGradient></defs><path fill="url(#gradient_1)" d="M112.885 135.181C114.24 133.351 115.888 130.424 117.114 128.379C120.042 123.467 122.922 118.526 125.753 113.558C131.619 103.438 137.948 93.4074 143.858 83.271C147.825 76.467 153.037 67.4397 158.356 61.9259C163.675 56.4125 172.279 52.0851 179.751 50.6342C185.785 49.4625 192.757 49.7305 199.007 49.721L222.411 49.7051L302.037 49.5138C301.038 52.0467 298.984 55.3832 297.554 57.8256C294.689 62.6788 291.779 67.5053 288.824 72.3044C281.573 84.2269 274.473 96.2403 267.525 108.342C264.622 113.32 261.205 118.306 258.558 123.392C251.089 136.078 242.983 149.157 235.766 161.962C231.479 169.099 227.35 176.342 222.936 183.403C222.183 184.608 221.456 185.861 220.608 187C219.02 190.207 216.545 194.096 214.594 197.219C208.826 206.455 203.428 216.324 197.524 225.43C196.306 224.29 194.306 219.292 193.16 217.315C191.145 211.915 187.936 206.412 186.141 201.048C184.935 199.093 182.776 192.434 181.413 191.273L181.664 190.804C180.04 188.662 176.071 178.883 174.573 175.705L154.639 132.712C152.214 127.574 149.291 120.642 146.648 115.845C145.456 114.619 145.366 113.396 143.937 112.059C139.658 113.261 142.257 114.095 137.532 112.056L137.302 111.959C137.292 111.602 137.31 111.292 137.359 110.942L136.913 110.764C121.522 135.664 106.624 162.017 91.657 187.217L81.0214 205.211C79.8514 207.195 75.1082 215.698 73.7954 216.54C72.1651 214.216 70.7743 211.765 69.0595 209.506C70.2563 206.418 74.7747 199.41 76.6785 196.121C83.5655 184.224 90.6916 172.406 97.6532 160.549C100.081 156.414 102.555 152.951 104.898 148.61C106.171 147.004 112.132 136.947 112.885 135.181Z"/><defs><linearGradient id="gradient_2" gradientUnits="userSpaceOnUse" x1="155.96323" y1="237.63559" x2="213.32323" y2="26.334866"><stop offset="0" stop-color="#0DBBF6"/><stop offset="1" stop-color="#4FF9FA"/></linearGradient></defs><path fill="url(#gradient_2)" d="M112.885 135.181C114.24 133.351 115.888 130.424 117.114 128.379C120.042 123.467 122.922 118.526 125.753 113.558C131.619 103.438 137.948 93.4074 143.858 83.271C147.825 76.467 153.037 67.4397 158.356 61.9259C163.675 56.4125 172.279 52.0851 179.751 50.6342C185.785 49.4625 192.757 49.7305 199.007 49.721L222.411 49.7051L302.037 49.5138C301.038 52.0467 298.984 55.3832 297.554 57.8256C294.689 62.6788 291.779 67.5053 288.824 72.3044C281.573 84.2269 274.473 96.2403 267.525 108.342C264.622 113.32 261.205 118.306 258.558 123.392C257.013 123.228 248.913 125.596 247.122 126.223C258.043 108.547 268.027 90.3944 279.05 72.767C282.077 67.9268 285.206 62.8596 287.736 57.7497C279.271 57.9068 270.367 57.7349 261.854 57.7211L215.173 57.7102L197.694 57.7187C192.732 57.7242 186.409 57.5014 181.616 58.528C165.446 61.991 161.395 70.0681 153.762 83.251C150.148 89.4928 145.17 97.7189 141.195 103.518C140.078 105.414 137.825 108.948 136.913 110.764C121.522 135.664 106.624 162.017 91.657 187.217L81.0214 205.211C79.8514 207.195 75.1082 215.698 73.7954 216.54C72.1651 214.216 70.7743 211.765 69.0595 209.506C70.2563 206.418 74.7747 199.41 76.6785 196.121C83.5655 184.224 90.6916 172.406 97.6532 160.549C100.081 156.414 102.555 152.951 104.898 148.61C106.171 147.004 112.132 136.947 112.885 135.181Z"/><defs><linearGradient id="gradient_3" gradientUnits="userSpaceOnUse" x1="202.14011" y1="166.2774" x2="213.64061" y2="187.93828"><stop offset="0" stop-color="#004A6E"/><stop offset="1" stop-color="#036491"/></linearGradient></defs><path fill="url(#gradient_3)" d="M181.664 190.804C185.921 183.672 188.865 176.575 195.042 170.875C206.57 160.238 220.928 161.178 235.766 161.962C231.479 169.099 227.35 176.342 222.936 183.403C222.183 184.608 221.456 185.861 220.608 187C219.02 190.207 216.545 194.096 214.594 197.219C208.826 206.455 203.428 216.324 197.524 225.43C196.306 224.29 194.306 219.292 193.16 217.315C191.145 211.915 187.936 206.412 186.141 201.048C184.935 199.093 182.776 192.434 181.413 191.273L181.664 190.804Z"/><defs><linearGradient id="gradient_4" gradientUnits="userSpaceOnUse" x1="202.74519" y1="188.1268" x2="211.48518" y2="220.39424"><stop offset="0" stop-color="#025E8A"/><stop offset="1" stop-color="#11A0DF"/></linearGradient></defs><path fill="url(#gradient_4)" d="M186.141 201.048C186.078 199.851 185.708 200.043 185.74 199C190.031 194.085 208.451 187.429 214.872 185.042C215.321 184.875 218.787 184.577 219.784 184.382C220.837 183.437 220.636 183.358 221.854 183.78C221.467 185.154 220.785 185.32 220.608 187C219.02 190.207 216.545 194.096 214.594 197.219C208.826 206.455 203.428 216.324 197.524 225.43C196.306 224.29 194.306 219.292 193.16 217.315C191.145 211.915 187.936 206.412 186.141 201.048Z"/><path fill="#2192E6" d="M141.195 103.518C142.614 106.446 145.49 112.82 146.648 115.845C145.456 114.619 145.366 113.396 143.937 112.059C139.658 113.261 142.257 114.095 137.532 112.056L137.302 111.959C137.292 111.602 137.31 111.292 137.359 110.942L136.913 110.764C137.825 108.948 140.078 105.414 141.195 103.518Z"/><path fill="#012F70" d="M175.383 262.464L196.937 297.373C198.636 300.136 200.387 302.867 202.189 305.564C202.902 306.641 204.698 309.208 205.237 310.253C207.062 308.026 208.682 304.505 210.205 302.854C214.144 308.627 217.827 314.994 221.58 320.952C229.142 332.848 236.627 344.792 244.033 356.785C242.54 356.872 240.578 357.043 239.122 357.042C237.934 356.976 236.374 357.034 235.157 357.044C224.436 356.943 214.082 358.587 204.186 353.251C193.505 347.492 189.099 338.586 182.99 328.648L166.974 302.524C165.975 300.899 159.591 290.908 159.289 289.884C157.377 287.588 155.639 284.517 154.791 281.643C155.823 280.522 158.775 274.7 160.13 272.765C160.104 273.723 159.841 274.046 159.393 274.887C160.403 276.479 162.188 279.452 163.543 280.654L164.043 280.657C164.829 279.506 165.816 277.488 166.864 276.953C169.831 272.199 172.671 267.368 175.383 262.464Z"/><path fill="#553AB4" d="M210.205 302.854C214.144 308.627 217.827 314.994 221.58 320.952C229.142 332.848 236.627 344.792 244.033 356.785C242.54 356.872 240.578 357.043 239.122 357.042C237.934 356.976 236.374 357.034 235.157 357.044C233.021 353.947 230.856 350.243 228.742 347.001C222.511 337.583 216.405 328.082 210.427 318.501C209.658 317.279 205.477 311.041 205.237 310.253C207.062 308.026 208.682 304.505 210.205 302.854Z"/><path fill="#0F68C0" d="M154.791 281.643C155.823 280.522 158.775 274.7 160.13 272.765C160.104 273.723 159.841 274.046 159.393 274.887C160.403 276.479 162.188 279.452 163.543 280.654L164.043 280.657C164.829 279.506 165.816 277.488 166.864 276.953C164.729 281.048 161.7 285.831 159.289 289.884C157.377 287.588 155.639 284.517 154.791 281.643Z"/><defs><linearGradient id="gradient_5" gradientUnits="userSpaceOnUse" x1="158.67468" y1="268.71109" x2="205.35974" y2="264.44028"><stop offset="0" stop-color="#0C7ECF"/><stop offset="1" stop-color="#14D0FF"/></linearGradient></defs><path fill="url(#gradient_5)" d="M181.413 191.273C182.776 192.434 184.935 199.093 186.141 201.048C187.936 206.412 191.145 211.915 193.16 217.315C194.306 219.292 196.306 224.29 197.524 225.43C196.825 226.699 196.334 227.577 195.511 228.777C192.864 233.057 190.254 237.36 187.682 241.685C185.163 245.985 182.953 250.098 179.947 254.11C188.714 267.032 196.573 281.493 205.144 294.624C206.506 296.712 209.155 300.717 210.205 302.854C208.682 304.505 207.062 308.026 205.237 310.253C204.698 309.208 202.902 306.641 202.189 305.564C200.387 302.867 198.636 300.136 196.937 297.373L175.383 262.464C172.671 267.368 169.831 272.199 166.864 276.953C165.816 277.488 164.829 279.506 164.043 280.657L163.543 280.654C162.188 279.452 160.403 276.479 159.393 274.887C159.841 274.046 160.104 273.723 160.13 272.765C160.941 270.452 168.892 257.261 170.685 255.007C166.296 248.936 160.996 239.716 157.089 233.135C157.098 233.123 157.107 233.11 157.116 233.098C158.037 231.07 159.71 227.768 161.679 226.714C162.595 226.715 162.408 226.823 163.329 227.563C162.975 226.794 162.536 226.146 162.085 225.43C163.651 221.639 166.396 217.208 168.465 213.58L181.413 191.273Z"/><defs><linearGradient id="gradient_6" gradientUnits="userSpaceOnUse" x1="166.84695" y1="214.25056" x2="189.68108" y2="223.2605"><stop offset="0" stop-color="#002953"/><stop offset="1" stop-color="#014C85"/></linearGradient></defs><path fill="url(#gradient_6)" d="M181.413 191.273C182.776 192.434 184.935 199.093 186.141 201.048C187.936 206.412 191.145 211.915 193.16 217.315C192.103 217.967 190.763 219.661 190.412 220.712C185.521 229.195 179.601 238.075 175.261 246.828C171.23 240.44 167.253 234.018 163.329 227.563C162.975 226.794 162.536 226.146 162.085 225.43C163.651 221.639 166.396 217.208 168.465 213.58L181.413 191.273Z"/><path fill="#0F68C0" d="M193.16 217.315C194.306 219.292 196.306 224.29 197.524 225.43C196.825 226.699 196.334 227.577 195.511 228.777C193.181 226.423 191.922 221.549 190.412 220.712C190.763 219.661 192.103 217.967 193.16 217.315Z"/><path fill="#2192E6" d="M81.5782 312.54C83.209 312.146 86.1023 310.069 88.6042 309.23C92.8243 316.44 97.6929 323.34 102.098 330.406L137.05 386.578C141.406 393.481 145.709 400.416 149.959 407.384C151.02 409.117 154.398 414.332 155.081 415.832L154.928 416.387C156.588 419.098 164.924 431.7 165.162 433.646L164.985 433.75L163.728 433.295C162.492 434.259 161.237 435.171 160.163 436.311L160.183 437.324L159.903 437.496C158.265 435.865 151.257 423.06 149.114 420.26C148.957 420.253 148.801 420.246 148.645 420.239C147.868 419.442 145.407 415.287 144.68 414.101C142.029 409.763 139.349 405.442 136.64 401.14C129.762 390.443 123.336 379.77 116.653 368.973L93.8437 332.501C89.8052 326.037 85.722 318.806 81.5782 312.54Z"/><path fill="#1FC3F6" d="M277.586 425.362C278.461 425.603 282.566 432.694 283.321 433.902C286.516 439.093 289.826 444.212 293.25 449.256C294.318 450.856 295.968 453.882 297.227 455.128C298.048 453.2 301.994 452.19 302.602 450.745C301.766 448.973 299.036 445.292 297.835 443.393C294.104 437.499 289.877 431.455 286.436 425.397L286.663 424.969C290.507 430.736 294.141 436.922 298.008 442.775C301.355 447.746 304.626 452.768 307.818 457.84C309.769 460.89 311.959 464.148 313.627 467.359C306.154 467.676 297.722 467.492 290.132 467.506L243.813 467.564L217.102 467.707C215.695 467.708 208.465 467.802 207.451 467.559C206.955 465.639 204.774 461.89 203.757 459.997C206.285 459.532 211.485 459.629 214.194 459.627L230.083 459.593C252.965 459.633 275.847 459.536 298.728 459.3C292.804 448.208 284.007 436.695 277.586 425.362Z"/><path fill="#F9F8FB" d="M72.0385 253.987C70.0067 254.396 67.8273 254.442 66.0154 253.363C59.6766 249.589 61.4716 240.723 68.9607 240.044C73.448 239.637 76.7663 243.036 76.5872 247.377C76.5104 249.874 75.9616 250.533 74.4265 252.383C77.4468 255.951 83.7472 266.745 86.6332 271.376C94.9902 284.615 103.236 297.924 111.369 311.301L158.89 387.894C170.583 407.048 182.456 426.091 194.51 445.02C197.558 449.816 200.728 455.408 203.757 459.997C204.774 461.89 206.955 465.639 207.451 467.559C206.658 467.648 205.842 467.768 205.05 467.769C204.739 467.533 200.631 460.623 199.717 459.445C192.475 446.856 184.577 435.027 176.922 422.771L133.596 352.964L95.7951 291.815C90.5403 283.172 85.2044 274.579 79.7882 266.036C77.3179 262.136 74.7051 257.654 72.0385 253.987Z"/><path fill="#0F68C0" d="M68.943 243.775C70.6816 243.547 72.2823 244.753 72.5413 246.488C72.8002 248.222 71.6219 249.844 69.8926 250.134C68.7462 250.326 67.5855 249.884 66.8566 248.979C66.1278 248.073 65.9444 246.845 66.3769 245.766C66.8095 244.687 67.7906 243.926 68.943 243.775Z"/><path fill="#2192E6" d="M244.033 356.785L272.569 402.368C275.861 407.55 279.12 412.752 282.346 417.975C283.567 419.945 285.66 423.054 286.663 424.969L286.436 425.397C289.877 431.455 294.104 437.499 297.835 443.393C299.036 445.292 301.766 448.973 302.602 450.745C301.994 452.19 298.048 453.2 297.227 455.128C295.968 453.882 294.318 450.856 293.25 449.256C289.826 444.212 286.516 439.093 283.321 433.902C282.566 432.694 278.461 425.603 277.586 425.362C276.764 424.757 262.081 400.681 260.434 397.911C252.219 384.094 243.585 370.867 234.86 357.349C236.629 357.345 237.378 357.369 239.122 357.042C240.578 357.043 242.54 356.872 244.033 356.785Z"/><path fill="#1FC3F6" d="M67.2508 211.949C68.8062 214.499 70.6949 217.1 72.1444 219.591C70.2119 222.263 68.6209 225.453 66.869 228.239C61.0359 237.514 57.1634 244.256 59.0254 255.616C59.5415 258.705 60.4524 261.714 61.7359 264.571C63.6208 268.833 66.3594 273.006 68.7573 276.999C73.1936 284.389 77.7224 291.723 82.3426 299C83.4858 300.808 87.8762 307.514 88.6042 309.23C86.1023 310.069 83.209 312.146 81.5782 312.54C76.8267 304.195 70.5296 295.326 65.4641 286.938C59.89 277.707 53.2726 268.875 51.0695 257.943C50.4548 254.892 50.5553 252.391 50.4882 249.437C50.2572 239.263 54.6155 232.291 59.8019 223.961C62.2196 220.078 64.6349 215.804 67.2508 211.949Z"/><path fill="#012F70" d="M157.089 233.135C160.996 239.716 166.296 248.936 170.685 255.007C168.892 257.261 160.941 270.452 160.13 272.765C158.775 274.7 155.823 280.522 154.791 281.643C146.747 263.709 148.799 250.443 157.089 233.135Z"/><path fill="#1FC3F6" d="M148.645 420.239C148.801 420.246 148.957 420.253 149.114 420.26C151.257 423.06 158.265 435.865 159.903 437.496L160.183 437.324L160.163 436.311C161.237 435.171 162.492 434.259 163.728 433.295L164.985 433.75L165.162 433.646C164.924 431.7 156.588 419.098 154.928 416.387L155.081 415.832L165.241 432.001C173.165 444.743 178.563 454.294 194.755 458.618C195.999 458.95 198.544 459.433 199.717 459.445C200.631 460.623 204.739 467.533 205.05 467.769C203.968 467.595 200.946 467.512 199.751 467.439C195.532 467.184 192.597 466.801 188.614 465.523C172.113 460.233 166.157 449.105 157.861 435.27C155.045 430.572 151.093 425.003 148.645 420.239Z"/><path fill="#F9F8FB" d="M69.0595 209.506C70.7743 211.765 72.1651 214.216 73.7954 216.54C77.5091 222.663 81.5443 228.639 85.4081 234.67C86.6823 236.658 88.3728 238.874 89.536 240.815C94.3554 239.947 98.5297 240.963 99.5346 246.507C99.8705 248.264 99.4571 250.081 98.3943 251.519C95.9816 254.802 90.9548 255.517 87.811 252.879C85.0511 250.563 85.0615 247.406 85.608 244.17C86.0709 243.556 86.6778 242.958 86.7699 242.291C81.8213 235.224 76.794 226.929 72.1444 219.591C70.6949 217.1 68.8062 214.499 67.2508 211.949C67.8194 210.889 68.2931 210.403 69.0595 209.506Z"/><path fill="#0F68C0" d="M91.2498 244.584C92.318 244.161 93.5323 244.353 94.4168 245.087C95.3012 245.821 95.7148 246.979 95.4956 248.107C95.2763 249.235 94.4591 250.154 93.3642 250.503C91.7499 251.018 90.0179 250.161 89.4479 248.565C88.8778 246.969 89.6747 245.209 91.2498 244.584Z"/><path fill="#F9F8FB" d="M132.856 304.775C140.162 304.767 143.299 311.303 139.126 317.058C142.216 321.415 146.816 329.086 149.705 333.735L166.552 360.89L209.978 431.269C213.035 431.466 217.226 431.254 220.329 431.168L236.188 430.727C236.778 427.987 238.618 425.7 241.399 424.958C243.234 424.483 245.183 424.797 246.777 425.823C248.442 426.875 249.591 428.577 249.943 430.515C250.37 432.848 249.687 434.57 248.392 436.436C243.99 440.655 238.35 439.14 236.25 433.539C234.953 433.685 233.723 433.68 232.426 433.722C224.577 433.973 216.633 433.999 208.804 434.614C206.308 431.576 201.887 423.806 199.716 420.264L183.65 394.211L153.149 344.957C147.736 336.245 141.916 327.326 136.751 318.495C134.784 318.942 133.259 319.181 131.263 318.469C129.446 317.827 127.991 316.439 127.263 314.655C125.235 309.747 128.461 306.353 132.856 304.775Z"/><path fill="#0F68C0" d="M133.542 308.619C134.719 308.509 135.864 309.048 136.529 310.026C137.194 311.004 137.274 312.267 136.739 313.321C136.203 314.376 135.137 315.056 133.954 315.096C132.2 315.155 130.716 313.81 130.605 312.058C130.493 310.306 131.794 308.783 133.542 308.619Z"/><path fill="#553AB4" d="M242.867 428.497C247.176 429.304 247.258 432.798 243.817 435.131C239.661 434.917 238.305 430.027 242.867 428.497Z"/><path fill="#F9F8FB" d="M145.414 351.223C143.969 350.777 141.9 348.451 142.755 346.989C144.856 343.396 152.084 345.78 148.781 350.538C151.095 353.3 154.303 358.49 156.27 361.628L167.297 379.477C176.674 394.674 186.131 409.82 195.669 424.915C199.547 431.141 203.251 437.569 207.19 443.729L252.486 443.26C253.306 439.103 256.874 436.651 261.049 437.522C262.972 437.922 264.647 439.091 265.686 440.757C266.668 442.333 266.954 444.245 266.477 446.039C265.928 448.098 264.543 449.834 262.656 450.826C257.884 453.346 254.363 449.967 252.31 445.957C237.106 446.1 220.678 446.119 205.552 446.66C203.695 444.207 201.537 440.435 199.906 437.728C197.083 433.007 194.223 428.309 191.326 423.633C181.611 408.122 171.165 392.135 161.823 376.453C158.388 370.622 154.906 364.818 151.378 359.042C150.018 356.767 148.485 354.137 147.077 351.855C146.838 351.469 145.898 351.322 145.414 351.223Z"/><path fill="#553AB4" d="M259.055 441.111C260.774 440.853 262.383 442.02 262.671 443.735C262.96 445.449 261.822 447.078 260.113 447.398C258.98 447.609 257.821 447.193 257.081 446.309C256.342 445.424 256.138 444.21 256.547 443.132C256.956 442.055 257.915 441.282 259.055 441.111Z"/><defs><linearGradient id="gradient_7" gradientUnits="userSpaceOnUse" x1="412.94067" y1="221.95322" x2="389.20398" y2="432.38959"><stop offset="0" stop-color="#471B90"/><stop offset="1" stop-color="#A842DE"/></linearGradient></defs><path fill="url(#gradient_7)" d="M293.472 218.213C296.177 218.054 299.649 218.184 302.426 218.195L319.219 218.253L368.336 218.273L414.184 218.256C421.6 218.257 429.492 218.14 436.868 218.363C443.584 218.567 451.122 223.004 455.47 228.132C460.179 232.632 461.741 240.996 461.777 247.213C461.873 263.619 461.893 280.027 461.947 296.433L462.009 314.486C462.022 318.849 462.136 323.537 461.738 327.847C461.356 332.269 460.423 336.626 458.958 340.816C457.005 346.265 453.023 352.416 449.941 357.414C441.529 371.059 433.206 384.956 424.48 398.399L401.505 435.838C400.039 438.199 395.443 446.26 393.959 447.836C392.665 450.156 390.662 452.543 388.795 454.415C381.383 461.818 371.576 466.337 361.133 467.162C357.299 467.491 351.535 467.34 347.51 467.37L325.048 467.477C321.268 462.117 316.988 454.602 313.362 448.889C306.834 438.604 299.96 427.977 293.819 417.492C288.836 410.351 283.639 401.418 278.678 393.909L263.998 370.862C261.179 366.406 257.704 361.238 255.459 356.558C267.622 356.256 281.319 356.604 293.644 356.611L300.138 356.583C303.649 356.408 310.524 356.911 313.816 356.328C314.674 353.907 322.6 341.303 324.371 338.803C324.732 337.862 327.104 334.178 327.853 333.092C332.879 325.81 337.141 316.862 342.285 309.853C342.063 308.801 329.532 289.45 327.896 286.86C325.943 283.871 324.046 280.845 322.206 277.784C319.288 273.208 316.332 268.655 313.338 264.128C311.571 261.83 309.71 258.675 307.963 256.188C304.134 250.177 296.241 239.552 294.419 233.021C293.86 231.019 293.597 220.925 293.472 218.213Z"/><defs><linearGradient id="gradient_8" gradientUnits="userSpaceOnUse" x1="347.59116" y1="360.69565" x2="325.03738" y2="457.65378"><stop offset="0" stop-color="#6526A8"/><stop offset="1" stop-color="#9337D0"/></linearGradient></defs><path fill="url(#gradient_8)" d="M342.988 352.963L343.142 352.945C344.235 355.588 345.863 357.318 347.083 359.743C355.763 376.632 364.312 393.589 372.729 410.611C374.826 414.804 376.861 418.795 378.829 423.059C379.54 424.6 382.016 429.924 382.864 431.137C383.984 433.536 386.687 439.603 387.951 441.526L387.903 441.768C388.97 443.838 390.505 447.288 392.172 448.799L392.632 448.865C393.285 448.181 393.179 448.082 393.959 447.836C392.665 450.156 390.662 452.543 388.795 454.415C381.383 461.818 371.576 466.337 361.133 467.162C357.299 467.491 351.535 467.34 347.51 467.37L325.048 467.477C321.268 462.117 316.988 454.602 313.362 448.889C306.834 438.604 299.96 427.977 293.819 417.492C288.836 410.351 283.639 401.418 278.678 393.909L263.998 370.862C261.179 366.406 257.704 361.238 255.459 356.558C267.622 356.256 281.319 356.604 293.644 356.611L300.138 356.583C303.649 356.408 310.524 356.911 313.816 356.328C314.914 356.56 319.172 356.53 320.499 356.539C330.276 356.608 333.912 357.101 342.988 352.963Z"/><defs><linearGradient id="gradient_9" gradientUnits="userSpaceOnUse" x1="338.59799" y1="403.45319" x2="348.58978" y2="468.66751"><stop offset="0" stop-color="#AB4DE3"/><stop offset="1" stop-color="#DB62F6"/></linearGradient></defs><path fill="url(#gradient_9)" d="M297.623 408.769C299.863 412.51 302.487 416.215 304.62 419.967C310.647 430.563 317.227 440.797 323.842 451.034C325.641 453.819 327.469 456.649 329.467 459.301L347.551 459.289C361.492 459.261 372.43 458.989 382.908 448.285C384.271 446.892 387.413 443.718 387.903 441.768C388.97 443.838 390.505 447.288 392.172 448.799L392.632 448.865C393.285 448.181 393.179 448.082 393.959 447.836C392.665 450.156 390.662 452.543 388.795 454.415C381.383 461.818 371.576 466.337 361.133 467.162C357.299 467.491 351.535 467.34 347.51 467.37L325.048 467.477C321.268 462.117 316.988 454.602 313.362 448.889C306.834 438.604 299.96 427.977 293.819 417.492C293.869 416.089 296.772 410.137 297.623 408.769Z"/><path fill="#48147D" d="M255.459 356.558C267.622 356.256 281.319 356.604 293.644 356.611C292.559 356.823 292.088 356.888 290.986 356.935C292.765 356.962 295.92 356.914 297.588 357.095C297.55 358.766 295.175 363.657 293.291 363.688C292.362 362.592 292.188 361.492 291.234 360.872L291.002 360.992C291.3 362.375 294.208 364.368 294.068 365.011C293.135 369.289 283.09 383.034 282.68 386.02C281.861 387.72 279.653 392.877 278.678 393.909L263.998 370.862C261.179 366.406 257.704 361.238 255.459 356.558Z"/><path fill="#893BC6" d="M342.988 352.963L343.142 352.945C344.235 355.588 345.863 357.318 347.083 359.743C340.057 365.201 325.434 364.76 316.885 364.741C309.364 364.694 301.842 364.713 294.321 364.798C295.697 362.246 297.306 359.57 298.449 356.926L300.138 356.583C303.649 356.408 310.524 356.911 313.816 356.328C314.914 356.56 319.172 356.53 320.499 356.539C330.276 356.608 333.912 357.101 342.988 352.963Z"/><path fill="#A74EDC" d="M282.68 386.02C283.592 387.015 297.358 408.02 297.623 408.769C296.772 410.137 293.869 416.089 293.819 417.492C288.836 410.351 283.639 401.418 278.678 393.909C279.653 392.877 281.861 387.72 282.68 386.02Z"/><path fill="#893BC6" d="M293.472 218.213C296.177 218.054 299.649 218.184 302.426 218.195L319.219 218.253L368.336 218.273L414.184 218.256C421.6 218.257 429.492 218.14 436.868 218.363C443.584 218.567 451.122 223.004 455.47 228.132C454.578 227.92 454.083 227.234 453.429 226.554C451.925 227.476 449.287 228.822 447.509 228.933C446.733 229.474 439.783 231.97 438.248 232.573C432.358 234.867 426.451 237.119 420.528 239.327L368.208 258.553L353.824 263.872C352.247 264.461 348.245 265.865 346.856 266.597L345.547 266.133C345.48 266.258 344.939 267.314 344.907 267.328C341.141 268.918 337.282 270.218 333.47 271.708C331.139 272.618 329.285 273.837 327.116 274.962C325.844 275.622 323.385 277.336 322.206 277.784C319.288 273.208 316.332 268.655 313.338 264.128C311.571 261.83 309.71 258.675 307.963 256.188C304.134 250.177 296.241 239.552 294.419 233.021C293.86 231.019 293.597 220.925 293.472 218.213Z"/><defs><linearGradient id="gradient_10" gradientUnits="userSpaceOnUse" x1="390.539" y1="190.40286" x2="343.52786" y2="274.70221"><stop offset="0" stop-color="#8F43C6"/><stop offset="1" stop-color="#C26EF6"/></linearGradient></defs><path fill="url(#gradient_10)" d="M293.472 218.213C296.177 218.054 299.649 218.184 302.426 218.195L319.219 218.253L368.336 218.273L414.184 218.256C421.6 218.257 429.492 218.14 436.868 218.363C443.584 218.567 451.122 223.004 455.47 228.132C454.578 227.92 454.083 227.234 453.429 226.554C451.925 227.476 449.287 228.822 447.509 228.933C446.192 229.24 446.022 229.225 444.83 228.704C436.821 225.206 427.776 225.911 418.983 225.917L392.641 225.96L300.476 226.259C302.677 233.049 307.318 239.96 311.079 246.052C313.131 249.375 315.186 251.632 316.813 255.428C313.845 255.44 310.757 255.173 307.963 256.188C304.134 250.177 296.241 239.552 294.419 233.021C293.86 231.019 293.597 220.925 293.472 218.213Z"/><path fill="#48147D" d="M313.338 264.128C317.136 263.071 333.244 263.443 338.134 263.974C340.029 264.18 343.6 265.094 345.347 266.006C345.414 266.048 345.48 266.091 345.547 266.133C345.48 266.258 344.939 267.314 344.907 267.328C341.141 268.918 337.282 270.218 333.47 271.708C331.139 272.618 329.285 273.837 327.116 274.962C325.844 275.622 323.385 277.336 322.206 277.784C319.288 273.208 316.332 268.655 313.338 264.128Z"/><defs><linearGradient id="gradient_11" gradientUnits="userSpaceOnUse" x1="345.96249" y1="266.70132" x2="339.6908" y2="303.75507"><stop offset="0" stop-color="#400A6C"/><stop offset="1" stop-color="#6A1BA0"/></linearGradient></defs><path fill="url(#gradient_11)" d="M345.547 266.133L346.856 266.597C348.686 267.985 350.867 268.983 352.789 270.318C357.709 273.737 361.654 279.07 364.357 284.368C360.189 289.906 356.34 295.168 353.23 301.379C352.339 303.159 351.071 304.792 350.193 306.641C351.114 307.986 354.991 313.934 355.568 315.279C355.741 318.168 362.301 325.231 363.043 328.16C363.109 328.419 359.474 334.685 359.112 334.945C357.7 333.981 354.915 327.207 353.112 326.008C352.897 325.891 343.122 311.322 342.285 309.853C342.063 308.801 329.532 289.45 327.896 286.86C325.943 283.871 324.046 280.845 322.206 277.784C323.385 277.336 325.844 275.622 327.116 274.962C329.285 273.837 331.139 272.618 333.47 271.708C337.282 270.218 341.141 268.918 344.907 267.328C344.939 267.314 345.48 266.258 345.547 266.133Z"/><path fill="#A74EDC" d="M332.805 279.527C337.501 285.775 341.413 293.18 345.72 299.74C346.98 301.659 348.847 304.954 350.193 306.641C351.114 307.986 354.991 313.934 355.568 315.279C355.741 318.168 362.301 325.231 363.043 328.16C363.109 328.419 359.474 334.685 359.112 334.945C357.7 333.981 354.915 327.207 353.112 326.008C352.897 325.891 343.122 311.322 342.285 309.853C342.063 308.801 329.532 289.45 327.896 286.86C328.985 285.885 331.873 281.021 332.805 279.527Z"/><defs><linearGradient id="gradient_12" gradientUnits="userSpaceOnUse" x1="344.03616" y1="351.83502" x2="332.42999" y2="314.11792"><stop offset="0" stop-color="#3F0B63"/><stop offset="1" stop-color="#7B24B0"/></linearGradient></defs><path fill="url(#gradient_12)" d="M324.371 338.803C324.732 337.862 327.104 334.178 327.853 333.092C332.879 325.81 337.141 316.862 342.285 309.853C343.122 311.322 352.897 325.891 353.112 326.008L353.594 327.235C355.735 330.205 357.064 332.928 358.917 335.911C358.333 337.306 355.839 341.285 355.647 342.061C351.977 347.077 348.632 349.937 343.142 352.945L342.988 352.963C333.912 357.101 330.276 356.608 320.499 356.539C319.172 356.53 314.914 356.56 313.816 356.328C314.674 353.907 322.6 341.303 324.371 338.803Z"/><path fill="#48147D" d="M353.594 327.235C355.735 330.205 357.064 332.928 358.917 335.911C358.333 337.306 355.839 341.285 355.647 342.061C351.977 347.077 348.632 349.937 343.142 352.945L342.988 352.963C333.912 357.101 330.276 356.608 320.499 356.539C319.172 356.53 314.914 356.56 313.816 356.328C314.674 353.907 322.6 341.303 324.371 338.803C324.919 340.778 321.829 340.818 325.255 342.616C328.251 344.189 330.717 345.285 334.144 345.555C335.925 345.695 335.881 346.159 337.288 344.986C339.596 347.008 341.17 350.316 342.836 352.577C345.056 351.375 347.155 349.961 349.103 348.355C350.821 346.964 350.81 344.641 351.592 342.609C352.318 340.722 353.421 338.693 353.814 336.72C354.649 332.538 355.837 331.512 353.469 327.63L353.594 327.235Z"/><path fill="#48147D" d="M364.357 284.368C372.578 299.27 371.475 312.799 363.742 327.811C362.089 325.333 360.496 322.973 358.91 320.452C358.165 319.267 356.278 316.094 355.568 315.279C354.991 313.934 351.114 307.986 350.193 306.641C351.071 304.792 352.339 303.159 353.23 301.379C356.34 295.168 360.189 289.906 364.357 284.368Z"/><path fill="#CD61EF" d="M419.13 392.85C419.835 393.86 421.275 395.378 421.848 396.296C423.349 398.701 423.241 397.253 424.48 398.399L401.505 435.838C400.039 438.199 395.443 446.26 393.959 447.836C393.179 448.082 393.285 448.181 392.632 448.865L392.172 448.799C390.505 447.288 388.97 443.838 387.903 441.768L387.951 441.526C389.041 440.546 394.447 431.474 395.425 429.756C396.186 428.981 401.612 419.83 402.561 418.432C408.226 410.086 413.497 401.172 419.13 392.85Z"/><path fill="#A74EDC" d="M382.864 431.137C384.415 432.105 387.258 431.955 388.99 431.65C391.696 431.174 391.122 431.373 393.274 432.285C394.452 431.803 393.982 430.845 395.425 429.756C394.447 431.474 389.041 440.546 387.951 441.526C386.687 439.603 383.984 433.536 382.864 431.137Z"/><path fill="#A74EDC" d="M355.647 342.061C355.611 343.717 353.521 345.522 352.616 346.618C351.277 348.238 346.776 350.602 346.767 352.333C346.756 354.528 347.085 354.995 346.169 357.195C346.534 358.016 346.665 358.663 347.305 359.138C350.65 357.914 356.197 352.647 358.823 350.01C355.792 353.937 351.474 357.461 347.083 359.743C345.863 357.318 344.235 355.588 343.142 352.945C348.632 349.937 351.977 347.077 355.647 342.061Z"/><path fill="#A74EDC" d="M314.038 49.5674C330.613 50.0406 348.471 49.5661 365.1 49.5478L451.623 49.4784C444.094 62.0597 435.761 74.5117 428.163 87.2294L415.269 108.647C412.544 113.273 409.096 119.646 406.09 123.98C403.588 128.861 398.945 136.152 396.031 141.058C393.245 145.745 390.413 150.404 387.536 155.036C386.235 157.156 384.65 159.997 383.273 161.971C377.194 162.061 371.114 162.089 365.034 162.054C362.358 162.053 358.633 162.183 356.059 162.051C354.665 162.264 354.177 162.381 352.758 162.215C350.177 161.893 340.469 162.117 337.545 162.235C336.224 162.365 336.03 162.355 334.732 162.076C332.267 161.925 329.721 162.21 327.008 162.041C325.569 162.379 324.936 162.458 323.514 162.08L323.279 162.089C320.053 161.82 314.7 161.98 311.287 161.995C304.542 161.992 297.797 162.035 291.053 162.121C276.011 162.234 260.968 162.263 245.925 162.208C247.953 157.93 253.231 149.657 255.785 145.491L270.401 121.317L283.772 99.1316C285.291 96.6287 288.911 90.3916 290.601 88.2059C292.28 84.9419 294.715 81.0885 296.646 77.8686C300.353 71.6732 304.11 65.5082 307.918 59.3745C309.219 57.2696 312.795 50.9475 314.038 49.5674Z"/><path fill="#553AB4" d="M290.601 88.2059C291.504 87.9827 291.975 87.0531 292.764 87.8704C294.4 89.5657 294.396 92.4868 295.515 94.4091C297.215 97.3293 298.717 101.43 300.12 104.682C305.229 116.641 310.193 128.662 315.012 140.74C315.802 142.706 320.07 153.657 320.869 154.818C321.972 157.695 322.412 159.615 323.279 162.089C320.053 161.82 314.7 161.98 311.287 161.995C304.542 161.992 297.797 162.035 291.053 162.121C276.011 162.234 260.968 162.263 245.925 162.208C247.953 157.93 253.231 149.657 255.785 145.491L270.401 121.317L283.772 99.1316C285.291 96.6287 288.911 90.3916 290.601 88.2059Z"/><path fill="#F9F8FB" d="M364.282 86.2348C359.935 81.1231 361.813 73.4104 368.572 73.1869C377.906 72.8784 379.824 87.4406 367.403 87.2118C365.206 92.1918 360.658 100.078 357.983 105.015C352.263 115.719 346.461 126.379 340.575 136.992C338.287 141.163 333.219 149.852 331.594 153.818C331.847 154.297 331.906 154.57 332.008 155.103C332.976 155.075 337.481 154.993 338.155 155.324C336.997 157.566 335.856 159.817 334.732 162.076C332.267 161.925 329.721 162.21 327.008 162.041C325.569 162.379 324.936 162.458 323.514 162.08L323.279 162.089C322.412 159.615 321.972 157.695 320.869 154.818C323.057 154.635 324.993 154.639 327.173 155.004C327.603 154.439 329.29 151.336 329.721 150.605C332.415 146.04 334.79 141.259 337.333 136.613L364.282 86.2348Z"/><path fill="#893BC6" d="M331.594 153.818C331.847 154.297 331.906 154.57 332.008 155.103C332.976 155.075 337.481 154.993 338.155 155.324C336.997 157.566 335.856 159.817 334.732 162.076C332.267 161.925 329.721 162.21 327.008 162.041C327.219 161.227 330.967 154.9 331.594 153.818Z"/><path fill="#893BC6" d="M320.869 154.818C323.057 154.635 324.993 154.639 327.173 155.004C325.941 157.309 324.598 159.714 323.514 162.08L323.279 162.089C322.412 159.615 321.972 157.695 320.869 154.818Z"/><path fill="#A74EDC" d="M367.762 77.2121C369.275 77.1563 370.522 77.3015 371.578 78.5355C372.069 79.1111 372.284 79.8729 372.166 80.6205C371.979 81.7945 371.117 82.2941 370.21 82.9534C366.44 83.7966 364.05 80.0589 367.762 77.2121Z"/><path fill="#893BC6" d="M378.409 154.635C380.156 152.446 381.754 149.309 383.169 146.829C386.946 140.213 390.945 133.487 395.333 127.269C397.202 124.62 401.722 123.965 404.637 123.234C405.263 123.077 405.659 123.61 406.09 123.98C403.588 128.861 398.945 136.152 396.031 141.058C393.245 145.745 390.413 150.404 387.536 155.036C386.235 157.156 384.65 159.997 383.273 161.971C377.194 162.061 371.114 162.089 365.034 162.054C362.358 162.053 358.633 162.183 356.059 162.051L360.633 153.481C361.829 154.724 362.754 154.504 364.442 154.53C369.078 154.601 373.777 154.699 378.409 154.635Z"/><path fill="#F9F8FB" d="M381.165 75.4453C378.027 73.1406 377.847 67.4678 380.523 65.3709C392.053 56.3371 400.057 77.4805 383.826 77.0411C379.044 86.7706 373.754 96.0862 368.585 105.608L352.581 135.515C349.48 141.259 345.713 147.709 342.87 153.465C341.632 155.868 339.826 159.515 338.287 161.907C338.04 162.016 337.793 162.125 337.545 162.235C336.224 162.365 336.03 162.355 334.732 162.076C335.856 159.817 336.997 157.566 338.155 155.324C339.484 154.28 356.005 122.399 358.082 118.506C365.851 104.192 373.545 89.8385 381.165 75.4453Z"/><path fill="#A74EDC" d="M385.371 67.0289C387.075 66.7575 388.678 67.9158 388.956 69.6194C389.233 71.323 388.08 72.93 386.378 73.2133C384.667 73.498 383.05 72.3383 382.771 70.6263C382.493 68.9143 383.658 67.3017 385.371 67.0289Z"/><path fill="#F9F8FB" d="M398.843 78.7192C396.153 76.0441 395.769 71.8933 398.395 69.0283C399.818 67.4838 401.827 66.6123 403.926 66.6286C413.083 66.6278 413.457 82.626 401.516 80.4483C392.098 97.0681 382.813 113.763 373.662 130.531C369.382 138.223 364.83 145.728 360.633 153.481L356.059 162.051C354.665 162.264 354.177 162.381 352.758 162.215L352.642 162.019C352.911 161.188 356.1 155.439 356.711 154.31C357.523 153.161 359.654 149.095 360.425 147.711L368.751 132.765L398.843 78.7192Z"/><path fill="#A74EDC" d="M402.298 70.6685C403.335 70.1857 404.553 70.3009 405.481 70.9699C406.409 71.6389 406.904 72.7572 406.774 73.8941C406.644 75.031 405.91 76.0091 404.855 76.4517C403.266 77.1179 401.437 76.3899 400.74 74.8143C400.043 73.2388 400.736 71.3954 402.298 70.6685Z"/><path fill="#893BC6" d="M342.87 153.465C345.422 155.175 353.032 153.642 356.711 154.31C356.1 155.439 352.911 161.188 352.642 162.019L352.758 162.215C350.177 161.893 340.469 162.117 337.545 162.235C337.793 162.125 338.04 162.016 338.287 161.907C339.826 159.515 341.632 155.868 342.87 153.465Z"/><path fill="#CD61EF" d="M369.75 57.125C370.996 56.8634 375.786 57.0134 377.412 56.9742C384.22 57.0955 393.429 56.7442 399.996 57.2551C405.038 57.6473 434.095 56.3593 436.447 57.8407C436.274 59.5938 425.776 76.3092 424.107 79.0845C424.575 80.3774 425.819 82.3491 425.238 83.488C423.914 84.4269 421.809 83.2484 420.631 85.0442C414.123 94.9635 408.688 105.999 402.355 115.975C402.741 113.245 432.893 63.7058 436.591 57.7447C434.337 57.7458 431.938 57.645 429.674 57.5897C392.654 57.1076 355.29 57.5544 318.234 57.4229C316.033 60.1116 312.11 67.1894 310.197 70.5271C306.622 76.7633 302.249 83.1925 298.792 89.3626L298.612 89.2625C299.492 87.3306 301.25 84.6689 302.407 82.7769L308.866 72.1485C311.582 67.6495 314.233 62.7263 317.163 58.4153C317.29 58.2284 318.222 57.1945 318.248 57.1925C320.566 57.0178 323.914 57.265 326.19 57.2724L352.78 57.208C356.607 57.2323 366.369 57.5399 369.75 57.125Z"/></svg>