<?xml version="1.0" encoding="utf-8" ?><svg xmlns="http://www.w3.org/2000/svg" xmlns:xlink="http://www.w3.org/1999/xlink" width="512" height="512" viewBox="0 0 512 512"><defs><linearGradient id="gradient_0" gradientUnits="userSpaceOnUse" x1="320.948" y1="903.89001" x2="440.63599" y2="236.96899"><stop offset="0" stop-color="#2139B9"/><stop offset="1" stop-color="#0AA6E4"/></linearGradient></defs><path fill="url(#gradient_0)" transform="scale(0.5 0.5)" d="M428.346 99.111L538.493 98.9453C559.999 98.9075 581.3 98.1456 602.843 98.6355C604.4 102.137 596.738 113.466 594.226 116.115C588.481 126.708 581.126 137.584 574.695 147.889C566.953 160.356 559.409 172.945 552.066 185.651L527.341 227.819C525.515 230.941 517.766 244.618 515.767 247.03C505.102 265.95 492.835 284.977 482.218 303.996C479.178 309.443 473.465 318.33 470.983 323.471C463.855 335.578 456.189 349.274 448.777 361.055C436.593 380.87 425.2 401.578 412.778 421.291C408.1 428.715 400.451 443.34 395.397 449.723C393.301 452.087 391.763 455.171 390.205 457.949L372.931 486.126C368.765 493.011 364.104 501.185 359.475 507.661C364.215 516.931 371.72 526.57 377.058 535.742C390.788 559.338 406.435 581.906 420.228 605.426L460.539 669.785C468.335 682.006 481.17 701.19 487.577 713.68C490.624 717.139 497.871 729.529 500.662 734.116L520.451 766.013L577.5 857.617C586.659 872.094 597.406 887.227 606.18 901.864C613.667 912.287 620.278 925.338 627.297 935.01L475.276 935.101L429.551 935.158C413.911 935.201 397.756 936.406 382.659 932.408C348.513 923.366 336.177 903.814 319.322 875.502L163.215 624.446C156.392 614.055 149.839 603.117 142.991 592.434C128.524 569.591 111.885 546.296 103.212 520.483C98.3303 505.956 100.606 482.366 107.435 468.785C117.939 447.895 131.974 428.631 143.689 408.463L234.554 255.176C251.233 226.756 267.35 197.797 284.97 170.091C299.589 147.103 308.294 125.172 332.594 110.744C352.983 98.6385 367.407 99.6687 390.03 99.2931C402.801 99.0554 415.574 98.9947 428.346 99.111Z"/><defs><linearGradient id="gradient_1" gradientUnits="userSpaceOnUse" x1="379.69501" y1="383.16101" x2="444.44101" y2="87.917198"><stop offset="0" stop-color="#2BA4E2"/><stop offset="1" stop-color="#1ADBFA"/></linearGradient></defs><path fill="url(#gradient_1)" transform="scale(0.5 0.5)" d="M428.346 99.111L538.493 98.9453C559.999 98.9075 581.3 98.1456 602.843 98.6355C604.4 102.137 596.738 113.466 594.226 116.115C588.481 126.708 581.126 137.584 574.695 147.889C566.953 160.356 559.409 172.945 552.066 185.651L527.341 227.819C525.515 230.941 517.766 244.618 515.767 247.03C505.102 265.95 492.835 284.977 482.218 303.996C479.178 309.443 473.465 318.33 470.983 323.471C463.855 335.578 456.189 349.274 448.777 361.055C436.593 380.87 425.2 401.578 412.778 421.291C408.1 428.715 400.451 443.34 395.397 449.723C391.25 446.333 387.707 437.936 385.416 432.97C383.899 429.974 381.958 424.952 380.487 421.682C376.277 412.278 371.998 402.905 367.652 393.563C366.283 390.378 364.668 386.081 362.581 383.45L363.682 381.538C359.436 375.284 353.792 361.207 350.402 354.093C345.994 344.841 341.956 335.348 337.73 326.055L282.569 206.927C278.711 213.049 275.385 219.18 271.672 225.353L246.275 267.679L170.63 396.286C161.329 412.013 151.772 427.588 141.963 443.004C136.595 451.55 125.576 468.424 121.98 477.219C117.213 488.973 116.105 501.893 118.8 514.287C120.075 519.91 121.926 525.388 124.324 530.632C128.373 539.433 135.195 549.952 140.314 558.312C148.939 572.438 157.672 586.497 166.514 600.488C169.371 605.012 174.787 613.03 177.125 617.541C173.573 620.129 167.406 623.142 163.215 624.446C156.392 614.055 149.839 603.117 142.991 592.434C128.524 569.591 111.885 546.296 103.212 520.483C98.3303 505.956 100.606 482.366 107.435 468.785C117.939 447.895 131.974 428.631 143.689 408.463L234.554 255.176C251.233 226.756 267.35 197.797 284.97 170.091C299.589 147.103 308.294 125.172 332.594 110.744C352.983 98.6385 367.407 99.6687 390.03 99.2931C402.801 99.0554 415.574 98.9947 428.346 99.111Z"/><defs><linearGradient id="gradient_2" gradientUnits="userSpaceOnUse" x1="117.244" y1="588.44897" x2="509.84799" y2="57.161701"><stop offset="0" stop-color="#19B9F5"/><stop offset="1" stop-color="#49F7F6"/></linearGradient></defs><path fill="url(#gradient_2)" transform="scale(0.5 0.5)" d="M428.346 99.111L538.493 98.9453C559.999 98.9075 581.3 98.1456 602.843 98.6355C604.4 102.137 596.738 113.466 594.226 116.115C588.481 126.708 581.126 137.584 574.695 147.889C566.953 160.356 559.409 172.945 552.066 185.651L527.341 227.819C525.515 230.941 517.766 244.618 515.767 247.03C509.094 248.057 501.618 250.699 496.967 251.324L496.524 250.694C496.674 246.891 500.087 243.492 502.021 240.208C518.124 212.864 533.802 185.315 550.542 158.349C559.041 144.659 568.02 130.046 575.072 115.619C561.805 115.065 546.045 115.632 532.577 115.607L445.914 115.512L397.942 115.503C388.713 115.515 371.611 115.259 363.024 116.989C330.716 123.498 322.071 141.302 307.226 167.401C300.639 178.983 290.048 195.766 282.569 206.927C278.711 213.049 275.385 219.18 271.672 225.353L246.275 267.679L170.63 396.286C161.329 412.013 151.772 427.588 141.963 443.004C136.595 451.55 125.576 468.424 121.98 477.219C117.213 488.973 116.105 501.893 118.8 514.287C120.075 519.91 121.926 525.388 124.324 530.632C128.373 539.433 135.195 549.952 140.314 558.312C148.939 572.438 157.672 586.497 166.514 600.488C169.371 605.012 174.787 613.03 177.125 617.541C173.573 620.129 167.406 623.142 163.215 624.446C156.392 614.055 149.839 603.117 142.991 592.434C128.524 569.591 111.885 546.296 103.212 520.483C98.3303 505.956 100.606 482.366 107.435 468.785C117.939 447.895 131.974 428.631 143.689 408.463L234.554 255.176C251.233 226.756 267.35 197.797 284.97 170.091C299.589 147.103 308.294 125.172 332.594 110.744C352.983 98.6385 367.407 99.6687 390.03 99.2931C402.801 99.0554 415.574 98.9947 428.346 99.111Z"/><path fill="#51F4F4" transform="scale(0.5 0.5)" d="M428.346 99.111L538.493 98.9453C559.999 98.9075 581.3 98.1456 602.843 98.6355C604.4 102.137 596.738 113.466 594.226 116.115C590.904 116.537 590.7 119.929 589.071 121.005L588.308 119.879L586.95 121.104C586.455 118.806 584.97 115.18 584.076 112.851C575.504 108.306 562.76 106.215 552.187 105.116C541.224 103.976 525.324 104.762 514.187 100.776C513.956 100.592 513.726 100.409 513.495 100.225C488.375 100.475 450.169 100.234 426.41 100.213L426.979 99.9L426.116 100.088C427.135 99.8483 427.538 99.7853 428.346 99.111Z"/><path fill="#00557D" transform="scale(0.5 0.5)" d="M363.682 381.538C375.738 358.325 386.551 336.995 413.015 327.787C432.57 320.982 451.053 323.617 470.983 323.471C463.855 335.578 456.189 349.274 448.777 361.055C436.593 380.87 425.2 401.578 412.778 421.291C408.1 428.715 400.451 443.34 395.397 449.723C391.25 446.333 387.707 437.936 385.416 432.97C383.899 429.974 381.958 424.952 380.487 421.682C376.277 412.278 371.998 402.905 367.652 393.563C366.283 390.378 364.668 386.081 362.581 383.45L363.682 381.538Z"/><defs><linearGradient id="gradient_3" gradientUnits="userSpaceOnUse" x1="405.23599" y1="368.71201" x2="429.48499" y2="434.858"><stop offset="0" stop-color="#005882"/><stop offset="1" stop-color="#159CD5"/></linearGradient></defs><path fill="url(#gradient_3)" transform="scale(0.5 0.5)" d="M367.652 393.563C370.047 390.182 377.386 389.777 379.403 388.052C388.207 380.559 395.51 375.205 406.377 371C413.607 368.202 440.949 352.357 447.346 357.926C447.734 359.444 447.853 359.794 448.777 361.055C436.593 380.87 425.2 401.578 412.778 421.291C408.1 428.715 400.451 443.34 395.397 449.723C391.25 446.333 387.707 437.936 385.416 432.97C383.899 429.974 381.958 424.952 380.487 421.682C376.277 412.278 371.998 402.905 367.652 393.563Z"/><path fill="#00306F" transform="scale(0.5 0.5)" d="M328.711 562.782C329.927 560.378 331.445 557.879 332.923 555.612C339.197 545.993 344.553 535.803 350.582 526.059L351.265 526.145L352.808 528.179C363.412 546.342 375.357 564.86 386.378 582.914C392.675 593.23 403.752 611.449 410.698 620.489C413.971 615.549 416.767 610.338 420.228 605.426L460.539 669.785C468.335 682.006 481.17 701.19 487.577 713.68C481.958 713.917 476.335 714.043 470.711 714.056L470.332 713.905C443.822 714.556 420.426 717.212 398.369 699.627C380.699 685.54 372.319 666.679 360.787 648.168C346.493 625.684 332.45 603.042 318.659 580.246C321.4 574.522 325.601 568.758 328.711 562.782Z"/><path fill="#523BB1" transform="scale(0.5 0.5)" d="M420.228 605.426L460.539 669.785C468.335 682.006 481.17 701.19 487.577 713.68C481.958 713.917 476.335 714.043 470.711 714.056L470.332 713.905C450.09 683.233 430.459 651.486 410.698 620.489C413.971 615.549 416.767 610.338 420.228 605.426Z"/><path fill="#1EBBEF" transform="scale(0.5 0.5)" d="M319.322 875.502C323.401 869.129 325.382 869.063 331.682 865.409C343.76 887.68 360.106 908.751 385.335 915.967C399.839 920.116 412.759 919.406 427.597 919.42L459.909 919.434C505.429 919.424 551.813 918.194 597.084 918.469C596.035 916.29 595.016 913.986 593.715 911.962C598.157 906.922 601.054 906.158 606.18 901.864C613.667 912.287 620.278 925.338 627.297 935.01L475.276 935.101L429.551 935.158C413.911 935.201 397.756 936.406 382.659 932.408C348.513 923.366 336.177 903.814 319.322 875.502Z"/><path fill="#2290E3" transform="scale(0.5 0.5)" d="M177.125 617.541C178.371 619.705 179.511 622.183 180.829 624.234C196.295 648.304 211.459 672.558 226.745 696.742L294.429 805.612L320.432 847.392C323.747 852.739 328.875 860.12 331.682 865.409C325.382 869.063 323.401 869.129 319.322 875.502L163.215 624.446C167.406 623.142 173.573 620.129 177.125 617.541Z"/><path fill="#2290E3" transform="scale(0.5 0.5)" d="M487.577 713.68C490.624 717.139 497.871 729.529 500.662 734.116L520.451 766.013L577.5 857.617C586.659 872.094 597.406 887.227 606.18 901.864C601.054 906.158 598.157 906.922 593.715 911.962C589.084 905.518 581.748 892.423 576.894 884.932C552.558 847.369 529.037 808.546 505.604 770.438C500.247 761.727 471.957 719.081 470.711 714.056C476.335 714.043 481.958 713.917 487.577 713.68Z"/><defs><linearGradient id="gradient_4" gradientUnits="userSpaceOnUse" x1="333.98599" y1="428.40799" x2="377.91" y2="447.12201"><stop offset="0" stop-color="#002B57"/><stop offset="1" stop-color="#024D7F"/></linearGradient></defs><path fill="url(#gradient_4)" transform="scale(0.5 0.5)" d="M323.895 450.294C335.206 429.584 349.975 403.527 362.581 383.45C364.668 386.081 366.283 390.378 367.652 393.563C371.998 402.905 376.277 412.278 380.487 421.682C381.958 424.952 383.899 429.974 385.416 432.97C384.323 434.87 381.418 438.957 380.902 440.496C376.184 449.129 371.257 457.647 366.124 466.041C363.03 471.14 353.291 487.318 351.442 492.912C349.152 492.257 326.654 454.999 323.895 450.294Z"/><path fill="#1EBBEF" transform="scale(0.5 0.5)" d="M385.416 432.97C387.707 437.936 391.25 446.333 395.397 449.723C393.301 452.087 391.763 455.171 390.205 457.949L372.931 486.126C368.765 493.011 364.104 501.185 359.475 507.661C364.215 516.931 371.72 526.57 377.058 535.742C390.788 559.338 406.435 581.906 420.228 605.426C416.767 610.338 413.971 615.549 410.698 620.489C403.752 611.449 392.675 593.23 386.378 582.914C375.357 564.86 363.412 546.342 352.808 528.179L353.137 528.015C353.651 528.308 365.809 547.958 367.193 550.122C367.408 548.024 366.81 542.855 367.211 541.279C368.039 538.03 370.352 533.336 371.281 529.96C371.906 527.685 367.147 522.213 365.818 520.127C363.704 516.781 361.334 513.681 359.656 510.072C358.009 506.53 361.247 503.149 363.049 500.279C365.189 496.869 367.584 493.717 369.299 490.027L369.024 489.358L367.308 489.609C362.511 487.859 360.17 479.549 359.803 479.279C357.964 480.611 353.461 490.287 352.132 492.936L351.442 492.912C353.291 487.318 363.03 471.14 366.124 466.041C371.257 457.647 376.184 449.129 380.902 440.496C381.418 438.957 384.323 434.87 385.416 432.97Z"/><path fill="#0E66B7" transform="scale(0.5 0.5)" d="M385.416 432.97C387.707 437.936 391.25 446.333 395.397 449.723C393.301 452.087 391.763 455.171 390.205 457.949C389.176 454.47 383.309 443.554 380.902 440.496C381.418 438.957 384.323 434.87 385.416 432.97Z"/><path fill="#00306F" transform="scale(0.5 0.5)" d="M314.233 465.883C316.02 469.64 320.182 476.241 322.453 480.056C328.364 489.984 334.817 500.568 341.444 510.014C335.369 517.577 323.33 539.485 318.833 548.553C317.263 551.153 315.642 553.729 314.265 556.432C313.07 557.871 310.112 561.964 308.652 562.467C306.76 555.524 303.487 548.226 301.974 541.098C295.647 511.289 302.677 492.154 314.233 465.883Z"/><path fill="#0E66B7" transform="scale(0.5 0.5)" d="M318.833 548.553C322.667 553.59 324.385 557.681 328.711 562.782C325.601 568.758 321.4 574.522 318.659 580.246C315.974 578.448 311.241 570.079 310.177 567.004C309.454 565.302 309.162 564.257 308.652 562.467C310.112 561.964 313.07 557.871 314.265 556.432C315.642 553.729 317.263 551.153 318.833 548.553Z"/><path fill="#00557D" transform="scale(0.5 0.5)" d="M308.652 562.467C310.112 561.964 313.07 557.871 314.265 556.432C314.091 560.292 311.945 563.563 310.177 567.004C309.454 565.302 309.162 564.257 308.652 562.467Z"/><defs><linearGradient id="gradient_5" gradientUnits="userSpaceOnUse" x1="776.836" y1="443.18399" x2="740.45697" y2="877.60699"><stop offset="0" stop-color="#491C90"/><stop offset="1" stop-color="#AA46DE"/></linearGradient></defs><path fill="url(#gradient_5)" transform="scale(0.5 0.5)" d="M625.279 436.487C637.934 435.629 659.849 436.341 673.253 436.319L776.869 436.4L844.497 436.428C870.589 436.43 884.698 433.117 905.975 451.477C906.264 451.729 906.549 451.985 906.831 452.246C912.305 458.406 918.77 466.533 920.576 474.818C924.022 490.624 923.277 507.117 923.107 523.118C922.994 533.759 923.234 544.703 923.313 555.341C923.486 578.516 923.459 601.693 923.233 624.868C923.089 644.463 925.105 663.594 916.844 682.306C910.774 696.055 902.276 708.754 894.701 721.707C879.147 746.766 863.669 772.266 848.002 797.215C835.29 818.741 821.503 840.39 808.363 861.689C798.726 877.312 789.309 896.822 776.324 909.725C762.21 923.748 738.233 933.21 718.611 934.877C709.834 935.623 697.011 935.217 687.875 935.224L651.637 935.46C646.255 930.504 631.655 904.838 626.983 897.666C623.551 892.399 617.254 882.85 613.781 877.365C600.846 856.941 588.655 835.891 575.282 815.741C569.162 806.519 563.45 795.958 557.108 787.167C560.004 783.744 563.041 776.349 565.006 772.086C569.467 763.094 574.928 754.772 579.885 746.068C582.697 741.13 586.536 735.291 588.172 729.91L588.638 728.832L589.735 726.917L593.326 720.696C594.693 718.338 595.534 717.062 594.829 714.367C593.269 712.984 592.949 713.397 590.393 713.076C602.952 712.717 615.456 712.734 627.964 712.418C631.182 704.734 639.87 691.521 644.474 684.375L661.209 658.028C669.647 644.836 676.097 632.82 685.128 619.246C675.66 606.047 664.629 586.904 655.956 572.985C646.293 557.887 637.128 543.301 626.973 528.489C623.304 522.948 619.568 517.451 615.766 512.001C615.025 511.191 610.645 504.212 610.073 503.201C606.432 496.758 588.604 472.311 588.509 466.622C587.508 461.019 587.691 442.831 587.701 436.31C600.063 436.671 612.779 436.177 625.279 436.487Z"/><defs><linearGradient id="gradient_6" gradientUnits="userSpaceOnUse" x1="693.05499" y1="720.90399" x2="651.10901" y2="915.297"><stop offset="0" stop-color="#6528A7"/><stop offset="1" stop-color="#9337CE"/></linearGradient></defs><path fill="url(#gradient_6)" transform="scale(0.5 0.5)" d="M588.638 728.832C594.446 729.819 610.636 729.619 617.125 729.621C637.061 729.626 674.71 731.486 691.805 721.083L693.919 719.817C698.739 726.616 704.076 738.288 707.91 745.858C711.425 752.801 715.049 759.827 718.521 766.783L753.472 837.038C760.305 851.089 767.184 866.55 774.224 880.332L775.124 880.72C781.423 877.254 780.415 873.15 785.165 869.335C794.455 852.812 807.018 834.336 817.354 818.329C823.819 808.317 831.535 794.607 838.892 785.674C841.637 789.785 844.569 793.657 848.002 797.215C835.29 818.741 821.503 840.39 808.363 861.689C798.726 877.312 789.309 896.822 776.324 909.725C762.21 923.748 738.233 933.21 718.611 934.877C709.834 935.623 697.011 935.217 687.875 935.224L651.637 935.46C646.255 930.504 631.655 904.838 626.983 897.666C623.551 892.399 617.254 882.85 613.781 877.365C600.846 856.941 588.655 835.891 575.282 815.741C569.162 806.519 563.45 795.958 557.108 787.167C560.004 783.744 563.041 776.349 565.006 772.086C569.467 763.094 574.928 754.772 579.885 746.068C582.697 741.13 586.536 735.291 588.172 729.91L588.638 728.832Z"/><defs><linearGradient id="gradient_7" gradientUnits="userSpaceOnUse" x1="659.71301" y1="718.66498" x2="772.35101" y2="913.21802"><stop offset="0" stop-color="#9D4DD6"/><stop offset="1" stop-color="#D662F2"/></linearGradient></defs><path fill="url(#gradient_7)" transform="scale(0.5 0.5)" d="M565.006 772.086C571.798 780.216 576.945 789.233 582.836 797.94C594.002 814.442 603.931 831.121 614.098 848.208C628.313 872.03 643.222 895.43 658.806 918.379C704.022 915.926 746.422 928.849 775.705 883.975L774.224 880.332L775.124 880.72C781.423 877.254 780.415 873.15 785.165 869.335C794.455 852.812 807.018 834.336 817.354 818.329C823.819 808.317 831.535 794.607 838.892 785.674C841.637 789.785 844.569 793.657 848.002 797.215C835.29 818.741 821.503 840.39 808.363 861.689C798.726 877.312 789.309 896.822 776.324 909.725C762.21 923.748 738.233 933.21 718.611 934.877C709.834 935.623 697.011 935.217 687.875 935.224L651.637 935.46C646.255 930.504 631.655 904.838 626.983 897.666C623.551 892.399 617.254 882.85 613.781 877.365C600.846 856.941 588.655 835.891 575.282 815.741C569.162 806.519 563.45 795.958 557.108 787.167C560.004 783.744 563.041 776.349 565.006 772.086Z"/><path fill="#A64FD6" transform="scale(0.5 0.5)" d="M774.224 880.332L775.124 880.72C781.423 877.254 780.415 873.15 785.165 869.335C783.501 872.516 778.134 881.667 775.705 883.975L774.224 880.332Z"/><defs><linearGradient id="gradient_8" gradientUnits="userSpaceOnUse" x1="757.83899" y1="520.52899" x2="739.22699" y2="411.383"><stop offset="0" stop-color="#7C30B9"/><stop offset="1" stop-color="#A358D6"/></linearGradient></defs><path fill="url(#gradient_8)" transform="scale(0.5 0.5)" d="M625.279 436.487C637.934 435.629 659.849 436.341 673.253 436.319L776.869 436.4L844.497 436.428C870.589 436.43 884.698 433.117 905.975 451.477C906.264 451.729 906.549 451.985 906.831 452.246C901.099 457.292 874.323 465.956 865.396 469.357C826.939 484.016 788.357 498.347 749.656 512.349L710.382 526.748C705.159 528.668 698.615 530.798 693.617 532.849C691.875 532.111 689.054 531.216 687.229 530.656C683.313 529.448 679.294 528.604 675.222 528.133C668.021 527.32 631.927 525.845 626.973 528.489C623.304 522.948 619.568 517.451 615.766 512.001C615.025 511.191 610.645 504.212 610.073 503.201C606.432 496.758 588.604 472.311 588.509 466.622C587.508 461.019 587.691 442.831 587.701 436.31C600.063 436.671 612.779 436.177 625.279 436.487Z"/><path fill="#BD69EC" transform="scale(0.5 0.5)" d="M587.701 436.31C600.063 436.671 612.779 436.177 625.279 436.487C620.704 437.586 595.061 436.927 588.525 437.025C588.506 442.943 588.474 448.377 588.836 454.296C589.498 452.541 589.523 451.429 590.773 450.618C591.196 451.576 591.505 456.264 591.217 457.519L590.548 458.124L589.675 457.865L589.216 456.527C589.113 457.817 589.011 458.393 589.117 459.696L590.442 461.241C593.463 461.437 593.671 460.677 595.971 461.774L596.838 463.145L597.505 461.187C600.34 461.837 596.866 462.548 600.235 462.739C601.251 461.186 600.778 460.922 600.246 459.032L600.855 458.545C601.738 459.683 601.906 460.051 602.572 461.293L603.195 461.251C603.533 458.7 600.988 454.991 601.102 451.865C602.447 451.227 668.05 451.401 674.463 451.547L674.723 451.749C650.464 451.807 625.744 452.099 601.522 451.85C605.199 470.066 625.156 493.339 633.638 510.584C629.478 510.78 619.288 511.012 615.766 512.001C615.025 511.191 610.645 504.212 610.073 503.201C606.432 496.758 588.604 472.311 588.509 466.622C587.508 461.019 587.691 442.831 587.701 436.31Z"/><path fill="#4B147E" transform="scale(0.5 0.5)" d="M626.973 528.489C631.927 525.845 668.021 527.32 675.222 528.133C679.294 528.604 683.313 529.448 687.229 530.656C689.054 531.216 691.875 532.111 693.617 532.849C697.775 535.427 704.456 539.124 707.979 542.071C721.876 553.691 733.147 573.411 737.764 590.664C742.807 609.511 738.081 639.068 727.112 655.355L726.317 655.458L725.887 654.985C725.377 657.963 719.841 667.936 717.982 670.448C707.443 652.268 695.527 636.909 685.128 619.246C675.66 606.047 664.629 586.904 655.956 572.985C646.293 557.887 637.128 543.301 626.973 528.489Z"/><path fill="#A64FD6" transform="scale(0.5 0.5)" d="M665.484 559.072C672.111 567.238 678.891 578.853 684.598 588.022L714.807 637.169C717.949 642.32 723.778 649.719 725.887 654.985C725.377 657.963 719.841 667.936 717.982 670.448C707.443 652.268 695.527 636.909 685.128 619.246C675.66 606.047 664.629 586.904 655.956 572.985C659.931 569.42 662.773 563.763 665.484 559.072Z"/><defs><linearGradient id="gradient_9" gradientUnits="userSpaceOnUse" x1="679.57501" y1="707.95801" x2="651.46301" y2="633.69598"><stop offset="0" stop-color="#3F0E70"/><stop offset="1" stop-color="#7626A4"/></linearGradient></defs><path fill="url(#gradient_9)" transform="scale(0.5 0.5)" d="M685.128 619.246C695.527 636.909 707.443 652.268 717.982 670.448C718.413 672.671 715.172 678.303 713.846 680.227C710.006 685.739 705.524 690.774 700.492 695.225C699.94 695.704 692.863 701.54 692.871 701.529C690.686 703.012 688.172 704.804 685.962 706.175C670.384 713.75 656.23 714.572 639.302 713.788C636.586 713.662 629.572 714.149 627.964 712.418C631.182 704.734 639.87 691.521 644.474 684.375L661.209 658.028C669.647 644.836 676.097 632.82 685.128 619.246Z"/><path fill="#A64FD6" transform="scale(0.5 0.5)" d="M692.871 701.529C693.623 704.203 694.05 712.839 692.825 715.066C690.796 714.898 687.718 708.343 685.962 706.175C688.172 704.804 690.686 703.012 692.871 701.529Z"/><path fill="#A64FD6" transform="scale(0.5 0.5)" d="M628.879 100.506C719.225 99.3241 810.924 100.073 901.362 100.057C892.167 116.235 881.019 131.895 871.334 147.82C853.42 177.276 835.296 206.649 817.564 236.215C816.113 238.635 813.424 243.063 812.382 245.477C806.985 254.85 769.588 321.466 764.733 322.853C759.898 324.234 745.764 323.204 740.127 323.25L647.479 323.182L645.223 323.23C631.757 322.472 612.529 323.386 598.85 323.462L543.078 323.415C526.794 323.435 509.969 323.703 493.766 323.13C495.756 316.502 502.421 306.566 505.875 300.468C514.471 285.295 524.137 270.636 533.106 255.784L561.706 207.909C567.698 197.873 576.271 183.382 583.103 173.866C595.093 154.022 607.195 134.182 619.497 114.532C622.42 109.863 625.494 104.812 628.879 100.506Z"/><path fill="#523BB1" transform="scale(0.5 0.5)" d="M493.766 323.13C495.756 316.502 502.421 306.566 505.875 300.468C514.471 285.295 524.137 270.636 533.106 255.784L561.706 207.909C567.698 197.873 576.271 183.382 583.103 173.866C583.253 174.068 583.399 174.274 583.554 174.472C584.371 175.514 583.966 175.031 584.919 175.898C589.611 180.169 621.618 260.772 626.871 273.546C631.562 284.952 638.346 297.843 641.53 309.605C642.263 312.694 643.453 316.137 644.057 318.793C644.244 321.17 644.219 321.066 645.223 323.23C631.757 322.472 612.529 323.386 598.85 323.462L543.078 323.415C526.794 323.435 509.969 323.703 493.766 323.13Z"/><path fill="#873BC0" transform="scale(0.5 0.5)" d="M757.589 309.002C764.836 297.255 785.287 256.705 795.356 250.439C800.202 247.423 806.985 247.616 812.382 245.477C806.985 254.85 769.588 321.466 764.733 322.853C759.898 324.234 745.764 323.204 740.127 323.25L647.479 323.182L645.223 323.23C644.219 321.066 644.244 321.17 644.057 318.793C643.453 316.137 642.263 312.694 641.53 309.605L641.92 309.439C646.4 309.634 650.045 309.596 654.538 309.472C660.723 309.812 669.65 309.022 676.143 308.953L722.832 308.584C735.301 308.408 744.388 310.064 757.589 309.002Z"/><path fill="#A64FD6" transform="scale(0.5 0.5)" d="M644.057 318.793L644.844 317.513L645.615 317.478C646.77 319.168 647.013 321.142 647.479 323.182L645.223 323.23C644.219 321.066 644.244 321.17 644.057 318.793Z"/><path fill="#BD69EC" transform="scale(0.5 0.5)" d="M641.92 309.439C644 306.746 650.904 307.978 654.168 308.386L654.677 309.029L654.538 309.472C650.045 309.596 646.4 309.634 641.92 309.439Z"/><path fill="#BD69EC" transform="scale(0.5 0.5)" d="M848.139 158.868C850.088 160.309 851.167 164.6 851.944 166.983C849.56 167.468 846.583 167.881 844.14 168.281C842.901 168.542 843.331 168.558 842.153 168.231L841.895 167.271C843.055 164.174 845.515 160.883 848.139 158.868Z"/><path fill="#4B147E" transform="scale(0.5 0.5)" d="M511.955 713.145C518.18 712.057 533.003 712.748 539.957 712.786C556.77 712.782 573.582 712.879 590.393 713.076C592.949 713.397 593.269 712.984 594.829 714.367C595.534 717.062 594.693 718.338 593.326 720.696L589.735 726.917L588.638 728.832L588.172 729.91C586.536 735.291 582.697 741.13 579.885 746.068C574.928 754.772 569.467 763.094 565.006 772.086C563.041 776.349 560.004 783.744 557.108 787.167C556.06 785.113 554.772 783.235 553.593 781.264C540.261 758.986 522.864 736.5 511.955 713.145Z"/><path fill="#523BB1" transform="scale(0.5 0.5)" d="M580.96 719.606C584.166 722.167 586.089 724.869 589.735 726.917L588.638 728.832L588.172 729.91C584.656 726.659 582.743 724.057 580.96 719.606Z"/></svg>